<svg class="icon" viewBox="0 0 1024 1024" xmlns="http://www.w3.org/2000/svg" width="200" height="200"><defs><style/></defs><path d="M984.544 604.736l38.944-95.168-38.944-92.896V315.904L911.808 243.2l-39.744-94.848-93.248-38.144-71.232-71.264H604.736L509.568 0l-92.896 38.944H315.904L243.2 111.648l-94.848 39.776-38.144 93.248-71.264 71.232V418.72L0 513.888l38.944 92.928v100.768l72.704 72.704 39.776 94.848 93.248 38.144 71.232 71.264h102.848l95.136 38.944 92.928-38.944h100.768l72.704-72.736 94.848-39.744 38.144-93.248 71.264-71.232z" fill="#F0D04D"/><path d="M685.92 197.888a1280.352 1280.352 0 0 0-457.152 680.288 662.72 662.72 0 0 0 44.96-16.096 1280.544 1280.544 0 0 1 414.304-608.544 649.792 649.792 0 0 0-2.112-55.648z" fill="#B18C25"/><path d="M569.312 472a448.608 448.608 0 0 0 230.08-68.64 450.24 450.24 0 0 0-28.8-270.016c-274.144 89.76-459.744 344.512-465.216 629.12 44.416 5.088 90.304 3.648 136.512-5.216 151.904-29.12 271.264-131.232 328.832-263.04A683.968 683.968 0 0 1 569.312 472z" fill="#FFF"/><path d="M356.512 775.616c-17.408 0-35.008-.992-52.32-2.976l-9.248-1.056.192-9.312a686.4 686.4 0 0 1 472.256-638.624l8.832-2.912 3.712 8.544c13.728 31.552 23.936 64.416 30.336 97.76 11.36 59.36 11.072 119.36-.864 178.368l-.864 4.288-3.712 2.336a457.12 457.12 0 0 1-157.824 62.112c-3.296.64-6.592 1.216-9.888 1.792a676.584 676.584 0 0 0 133.216 8.032l16.288-.64-6.528 14.944a461.856 461.856 0 0 1-423.584 277.344zm-40.672-22.368a441.632 441.632 0 0 0 438.72-248.384c-3.456.064-6.912.064-10.368.064-59.968 0-119.712-7.744-177.536-23.072l-70.336-18.624 72.736-1.504a436.896 436.896 0 0 0 221.12-64.736c10.592-55.008 10.56-110.88-.032-166.144a443.392 443.392 0 0 0-25.344-84.8 666.112 666.112 0 0 0-448.96 607.2z" fill="#CFA41E"/><path d="M375.68 775.616c-17.408 0-35.008-.992-52.32-2.976l-9.248-1.056.192-9.312A686.496 686.496 0 0 1 786.56 123.616l8.832-2.912 3.712 8.544c13.728 31.52 23.936 64.416 30.336 97.76 11.36 59.328 11.072 119.36-.864 178.368l-.864 4.288L824 412a457.12 457.12 0 0 1-157.824 62.112c-3.296.64-6.592 1.216-9.888 1.792a682.848 682.848 0 0 0 133.216 8.064l16.288-.64-6.528 14.944A461.856 461.856 0 0 1 375.68 775.616zm-40.704-22.368a441.632 441.632 0 0 0 438.72-248.384 694.976 694.976 0 0 1-187.872-23.008l-70.336-18.624 72.736-1.504a436.896 436.896 0 0 0 221.12-64.736 437.664 437.664 0 0 0-.032-166.144 443.392 443.392 0 0 0-25.344-84.8 666.144 666.144 0 0 0-448.992 607.2z" fill="#B18C25"/><path d="M770.592 133.344a450.24 450.24 0 0 1 28.8 270.016A447.424 447.424 0 0 1 569.312 472a679.138 679.138 0 0 0 93.696 17.888c35.36 4.224 71.36 5.696 107.712 4.32-57.568 131.776-176.928 233.92-328.832 263.04a450.976 450.976 0 0 1-136.512 5.216c5.472-284.608 191.072-539.36 465.216-629.12" fill="#FFF"/><path d="M356.512 775.616c-17.408 0-35.008-.992-52.32-2.976l-9.248-1.056.192-9.312a686.4 686.4 0 0 1 472.256-638.624l28-2.912-15.424 8.544c13.728 31.52 23.936 64.416 30.336 97.76 11.36 59.328 11.072 119.36-.864 178.368l-.864 4.288-3.712 2.336a457.12 457.12 0 0 1-157.824 62.112c-3.296.64-6.592 1.216-9.888 1.792A682.848 682.848 0 0 0 770.368 484l16.288-.64-6.528 14.944a461.856 461.856 0 0 1-423.616 277.312zm-40.672-22.368a441.632 441.632 0 0 0 438.72-248.384 694.976 694.976 0 0 1-187.872-23.008l-70.336-18.624 72.736-1.504a436.896 436.896 0 0 0 221.12-64.736 437.664 437.664 0 0 0-.032-166.144 443.392 443.392 0 0 0-25.344-84.8 666.08 666.08 0 0 0-448.992 607.2z" fill="#B18C25"/><path d="M703.648 218.976c-203.68 172.48-361.472 392.832-458.72 653.856l78.624-30.016c75.328-238.688 186.144-416.192 380.64-573.856.064-18.432.928-31.36-.544-49.984z" fill="#B18C25"/><path d="M702.08 192.544A1280.224 1280.224 0 0 0 244.928 872.8a662.72 662.72 0 0 0 44.96-16.096A1280.544 1280.544 0 0 1 704.192 248.16a676.194 676.194 0 0 0-2.112-55.616z" fill="#EDEEEE"/></svg>